<svg width="24" height="24" viewBox="0 0 24 24" fill="none" xmlns="http://www.w3.org/2000/svg">
<path d="M12.1279 3C7.25527 2.92496 3.08529 6.92098 3.00001 11.7459C2.91133 16.8624 6.82548 20.9488 11.8738 21.0119C16.9034 21.075 20.9199 17.1507 20.9966 12.0972C21.0733 7.17681 17.0756 3.07846 12.1279 3ZM12.0427 19.3712C7.91701 19.3815 4.62707 16.0864 4.64072 11.9608C4.65436 7.95111 8.0381 4.61342 12.0665 4.64071C16.0625 4.668 19.3269 7.95623 19.3474 11.9795C19.3695 16.0642 16.112 19.361 12.0444 19.3695L12.0427 19.3712Z" fill="#242C37"/>
<path d="M12 16.8982C12.4248 16.8982 12.7692 16.5539 12.7692 16.1291C12.7692 15.7042 12.4248 15.3599 12 15.3599C11.5752 15.3599 11.2308 15.7042 11.2308 16.1291C11.2308 16.5539 11.5752 16.8982 12 16.8982Z" fill="#242C37"/>
<path d="M11.8687 7.05401C10.5947 7.05401 9.49289 7.78056 8.94883 8.83968C8.93348 8.87038 8.91813 8.90279 8.90278 8.93519C8.86867 9.02217 8.84821 9.11598 8.84821 9.2149C8.84821 9.6481 9.19954 9.99943 9.63274 9.99943C9.9278 9.99943 10.1802 9.8357 10.3149 9.59522C10.3286 9.56794 10.3422 9.53894 10.3576 9.51336C10.6458 9.00682 11.1899 8.66401 11.8141 8.66401C12.7385 8.66401 13.4889 9.41444 13.4889 10.3388C13.4889 11.2632 12.7828 11.9659 11.896 12.0102C11.8857 12.0102 11.8772 12.0068 11.867 12.0068C11.8448 12.0068 11.8243 12.0119 11.8022 12.0136C11.386 12.046 11.0568 12.3923 11.0568 12.8169C11.0568 13.2416 11.3962 13.5998 11.8226 13.6219C11.838 13.6219 11.8516 13.6271 11.8653 13.6271C11.8789 13.6271 11.8943 13.6237 11.9079 13.6219C13.7021 13.5981 15.1501 12.1399 15.1501 10.3405C15.1501 8.54122 13.6799 7.05571 11.8653 7.05571L11.8687 7.05401Z" fill="#242C37"/>
</svg>
