<svg width="16" height="16" viewBox="0 0 16 16" fill="none" xmlns="http://www.w3.org/2000/svg">
<g clip-path="url(#clip0_2336_1100)">
<path d="M15.2124 1.11955C15.0042 1.11955 14.8155 1.20062 14.675 1.3327C14.6478 1.36275 14.6205 1.3928 14.5933 1.42215C14.5744 1.44242 14.5555 1.46199 14.5367 1.48085C12.3109 3.70597 10.0892 5.93528 7.70269 8.32672C7.18275 7.75506 6.76554 7.19809 6.26796 6.75851C6.2449 6.73825 6.22044 6.71868 6.19668 6.69841C6.06809 6.60197 5.90806 6.54397 5.73475 6.54397C5.30845 6.54397 4.96252 6.8899 4.96252 7.31619C4.96252 7.46364 5.00445 7.60062 5.07644 7.71802C5.11837 7.78721 5.17078 7.84941 5.23228 7.90182C5.81232 8.57061 6.4846 9.16463 7.11077 9.79568C7.53426 10.2227 7.97034 10.2541 8.39803 9.82713C10.8433 7.38957 13.2829 4.94711 15.724 2.50466C15.7527 2.47601 15.7813 2.44735 15.81 2.4187C15.9281 2.28103 15.9993 2.10282 15.9993 1.90715C15.9993 1.47247 15.6464 1.11955 15.2118 1.11955H15.2124Z" fill="#1DAA6C"/>
<path d="M14.8287 7.7914C14.4122 7.7914 14.0747 8.12894 14.0747 8.54545V13.6959C14.0747 13.9042 13.9042 14.0747 13.6959 14.0747H1.88687C1.67862 14.0747 1.5081 13.9042 1.5081 13.6959V1.88687C1.5081 1.67862 1.67862 1.5081 1.88687 1.5081H9.99974C10.4162 1.5081 10.7538 1.17056 10.7538 0.754051C10.7538 0.337541 10.4162 0 9.99974 0H0.838611C0.377375 0 0 0.377375 0 0.838611V14.7442C0 15.2054 0.377375 15.5828 0.838611 15.5828H14.7442C15.2054 15.5828 15.5828 15.2054 15.5828 14.7442V8.54545C15.5828 8.12894 15.2453 7.7914 14.8287 7.7914Z" fill="#1DAA6C"/>
</g>
<defs>
<clipPath id="clip0_2336_1100">
<rect width="16" height="15.5828" fill="white"/>
</clipPath>
</defs>
</svg>
